Coordinates
version=1
nRows=54
nColumns=12
inDegrees=yes

Units are S.I. units (second, meters, Newtons, ...)
Angles are in degrees

endheader
time	SC_y	SC_z	SC_x	AC_y	AC_z	AC_x	GH_y	GH_z	GH_yy	EL_x	PS_y
       0.0              -22.27          25.37          66.75          57.61         -4.564         -7.647          100.8          82.02         -146.9          88.24          60.33
  0.001298              -22.27          25.37          66.74          57.61         -4.565         -7.649          100.8          82.02         -146.9          88.24          60.33
  0.002595              -22.28          25.37          66.74          57.62         -4.565         -7.651          100.9          82.02         -146.9          88.25          60.33
  0.003893              -22.28          25.37          66.74          57.62         -4.566         -7.653          100.9          82.02         -146.9          88.25          60.32
  0.005191              -22.28          25.37          66.73          57.62         -4.567         -7.655          100.9          82.02         -146.9          88.26          60.32
  0.006488              -22.28          25.37          66.73          57.62         -4.567         -7.657          100.9          82.02         -146.9          88.26          60.32
  0.007786              -22.29          25.37          66.72          57.62         -4.568          -7.66          100.9          82.02         -146.9          88.27          60.32
  0.009084              -22.29          25.37          66.72          57.63         -4.569         -7.662          100.9          82.01         -146.9          88.27          60.32
   0.01038              -22.29          25.37          66.72          57.63          -4.57         -7.665          100.9          82.01         -146.9          88.28          60.32
   0.01168               -22.3          25.37          66.71          57.63         -4.571         -7.668          100.9          82.01         -146.9          88.28          60.31
   0.01298               -22.3          25.37           66.7          57.64         -4.572         -7.671          100.9          82.01         -146.9          88.29          60.31
   0.01427               -22.3          25.37           66.7          57.64         -4.573         -7.675          100.9          82.01         -146.9           88.3          60.31
   0.01557              -22.31          25.36          66.69          57.64         -4.574         -7.678          101.0          82.01         -146.9           88.3           60.3
   0.01687              -22.31          25.36          66.68          57.65         -4.575         -7.682          101.0           82.0         -146.9          88.31           60.3
   0.01817              -22.32          25.36          66.68          57.65         -4.576         -7.687          101.0           82.0         -146.9          88.32           60.3
   0.01947              -22.32          25.36          66.67          57.65         -4.578         -7.691          101.0           82.0         -146.9          88.33          60.29
   0.02076              -22.33          25.36          66.66          57.66         -4.579         -7.696          101.0           82.0         -146.9          88.34          60.29
   0.02206              -22.34          25.36          66.65          57.66         -4.581         -7.702          101.0           82.0         -146.9          88.35          60.29
   0.02336              -22.34          25.35          66.64          57.67         -4.583         -7.708          101.1          81.99         -146.9          88.37          60.28
   0.02466              -22.35          25.35          66.63          57.68         -4.585         -7.715          101.1          81.99         -146.9          88.38          60.28
   0.02595              -22.36          25.35          66.61          57.68         -4.587         -7.722          101.1          81.99         -146.9           88.4          60.27
   0.02725              -22.37          25.35           66.6          57.69          -4.59          -7.73          101.1          81.98         -146.9          88.41          60.26
   0.02855              -22.38          25.34          66.58           57.7         -4.592         -7.739          101.2          81.98         -146.8          88.43          60.26
   0.02985              -22.39          25.34          66.57          57.71         -4.595         -7.749          101.2          81.97         -146.8          88.45          60.25
   0.03114               -22.4          25.34          66.55          57.72         -4.599         -7.759          101.3          81.97         -146.8          88.47          60.24
   0.03244              -22.42          25.33          66.52          57.73         -4.602         -7.772          101.3          81.96         -146.8           88.5          60.23
   0.03374              -22.43          25.33           66.5          57.74         -4.606         -7.785          101.4          81.96         -146.8          88.53          60.22
   0.03504              -22.45          25.32          66.47          57.76         -4.611           -7.8          101.4          81.95         -146.8          88.56          60.21
   0.03634              -22.47          25.32          66.44          57.77         -4.616         -7.818          101.5          81.94         -146.8           88.6           60.2
   0.03763              -22.49          25.31          66.41          57.79         -4.622         -7.837          101.5          81.93         -146.7          88.64          60.18
   0.03893              -22.52          25.31          66.37          57.81         -4.629          -7.86          101.6          81.92         -146.7          88.69          60.16
   0.04023              -22.55           25.3          66.32          57.84         -4.637         -7.885          101.7          81.91         -146.7          88.74          60.14
   0.04153              -22.58          25.29          66.27          57.86         -4.646         -7.915          101.8          81.89         -146.6           88.8          60.12
   0.04282              -22.62          25.28          66.21           57.9         -4.657          -7.95          102.0          81.88         -146.6          88.87          60.09
   0.04412              -22.67          25.26          66.13          57.93         -4.669          -7.99          102.1          81.86         -146.6          88.96          60.06
   0.04542              -22.73          25.25          66.05          57.98         -4.684         -8.038          102.3          81.84         -146.5          89.06          60.03
   0.04672              -22.79          25.23          65.95          58.03         -4.701         -8.094          102.5          81.81         -146.4          89.18          59.98
   0.04801              -22.87          25.21          65.83          58.09         -4.722         -8.162          102.8          81.78         -146.4          89.32          59.93
   0.04931              -22.97          25.18          65.68          58.17         -4.747         -8.244          103.1          81.74         -146.3          89.49          59.87
   0.05061              -23.08          25.15           65.5          58.27         -4.778         -8.344          103.4          81.69         -146.2           89.7          59.79
   0.05191              -23.23          25.11          65.28          58.38         -4.816         -8.467          103.9          81.63         -146.0          89.96          59.69
   0.05321              -23.41          25.06           65.0          58.53         -4.863         -8.622          104.5          81.56         -145.9          90.28          59.57
    0.0545              -23.63           25.0          64.65          58.71         -4.922         -8.816          105.2          81.47         -145.6          90.69          59.42
    0.0558              -23.92          24.92          64.21          58.94         -4.998         -9.062          106.1          81.35         -145.4          91.21          59.23
    0.0571              -24.29          24.81          63.65          59.23         -5.095         -9.378          107.3           81.2         -145.0          91.87          58.99
    0.0584              -24.76          24.68          62.92          59.61         -5.219         -9.784          108.8          81.01         -144.6          92.73          58.67
   0.05969              -25.36          24.51          61.99           60.1         -5.378          -10.3          110.7          80.76         -144.0          93.81          58.27
   0.06099              -26.12           24.3          60.83          60.71         -5.578         -10.95          113.1          80.46         -143.3          95.18          57.77
   0.06229              -27.04          24.05          59.41          61.45         -5.821         -11.75          116.1          80.08         -142.4          96.85          57.15
   0.06359              -28.11          23.75          57.76          62.31         -6.103         -12.67          119.5          79.65         -141.4          98.78          56.44
   0.06488              -29.27          23.43          55.97          63.24         -6.408         -13.66          123.2          79.17         -140.3          100.9          55.67
   0.06618              -30.43           23.1          54.19          64.18         -6.713         -14.66          126.9           78.7         -139.1          103.0          54.89
   0.06748               -31.5          22.81          52.54          65.04         -6.995         -15.58          130.3          78.27         -138.1          104.9          54.18
   0.06878              -32.42          22.55          51.12          65.78         -7.239         -16.37          133.3          77.89         -137.2          106.6          53.57
